<svg width="109" height="74" viewBox="0 0 109 74" fill="none" xmlns="http://www.w3.org/2000/svg">
<path opacity="0.1" fill-rule="evenodd" clip-rule="evenodd" d="M82.6581 13.7514C89.6051 24.1947 87.4568 41.5197 79.4255 53.1704C71.4143 64.8411 57.5001 70.7972 43.0639 71.099C28.6277 71.4009 13.6695 66.0484 5.99959 54.599C-1.69035 43.1295 -2.09192 25.6032 5.39724 14.8581C12.8663 4.1331 28.2261 0.209316 43.9273 0.00809585C59.6485 -0.193124 75.691 3.32822 82.6581 13.7514Z" fill="#36B37E"/>
<path fill-rule="evenodd" clip-rule="evenodd" d="M94.1335 21.8651C88.4028 15.3398 78.3847 14.9188 72.1269 20.9404L54.1237 38.2639C48.1955 43.9684 47.9704 53.384 53.6193 59.3652C59.267 65.345 68.6775 65.6593 74.7115 60.0696L93.04 43.0907C99.0958 37.4807 99.5808 28.0677 94.1335 21.8651Z" fill="white"/>
<path fill-rule="evenodd" clip-rule="evenodd" d="M61.9206 29.7408L83.9486 51.7689L85.9512 49.7663L63.9231 27.7383L61.9206 29.7408Z" fill="#2E2E2E"/>
<path d="M70.8699 18.6583C77.5057 12.0227 88.2644 12.0228 94.9002 18.6583C101.536 25.2942 101.536 36.0537 94.9002 42.6895L76.8777 60.712C70.2419 67.3479 59.4824 67.3479 52.8465 60.712C46.211 54.0762 46.2109 43.3175 52.8465 36.6817L70.8699 18.6583ZM92.8982 20.6612C87.3684 15.1313 78.4018 15.1313 72.8719 20.6612L54.8494 38.6837C49.3195 44.2136 49.3195 53.1802 54.8494 58.71C60.3793 64.2396 69.345 64.2396 74.8748 58.71L92.8982 40.6866C98.4278 35.1568 98.4278 26.191 92.8982 20.6612Z" fill="#2E2E2E"/>
</svg>
